<svg width="207" height="32" viewBox="0 0 207 32" fill="none" xmlns="http://www.w3.org/2000/svg">
<g clip-path="url(#clip0_574_113513)">
<path d="M0.0927415 26.7057L0.0927417 31.3482L29.526 31.3482L29.526 26.4562L17.6209 26.4562L17.6209 14.2994L29.526 26.2311L29.526 19.3138L15.1364 4.89205L29.526 4.89205L29.526 9.82276e-06L0.0927403 1.11093e-05L0.0927405 4.89205L14.9558 4.89205L-5.01022e-07 19.8862L-1.98655e-07 26.8035L0.0927415 26.7106L0.0927415 26.7057ZM0.346561 26.4562L12.7398 14.0353L12.7398 26.4562L0.346561 26.4562Z" fill="white"/>
</g>
<path d="M205.75 6.44747C205.215 5.91613 204.56 5.65045 203.787 5.65045C203.013 5.65045 202.357 5.91613 201.823 6.44747C201.288 6.99249 201.021 7.65082 201.021 8.42244C201.021 9.19406 201.288 9.84457 201.823 10.3759C202.351 10.9131 203.005 11.1827 203.787 11.1827C204.568 11.1827 205.222 10.9131 205.75 10.3759C206.285 9.84457 206.551 9.19406 206.551 8.42244C206.551 7.65082 206.283 6.99249 205.75 6.44747ZM205.277 9.92857C204.879 10.3329 204.382 10.5342 203.787 10.5342C203.191 10.5342 202.71 10.3329 202.306 9.92857C201.902 9.5242 201.698 9.02216 201.698 8.42049C201.698 7.81881 201.898 7.30505 202.294 6.90263C202.693 6.49826 203.189 6.29705 203.785 6.29705C204.38 6.29705 204.871 6.49826 205.275 6.90263C205.674 7.307 205.871 7.81295 205.871 8.42049C205.871 9.02802 205.672 9.5242 205.275 9.92857H205.277Z" fill="white"/>
<path d="M204.949 9.10023C204.935 8.78963 204.836 8.5806 204.65 8.47316C204.882 8.33837 205 8.13326 205 7.85782C205 7.58238 204.91 7.39484 204.732 7.25224C204.56 7.10377 204.318 7.02954 204.001 7.02954H202.697V9.76832H203.499V8.85604H203.839C203.949 8.85604 204.025 8.87753 204.066 8.92051C204.115 8.96349 204.142 9.04358 204.148 9.16469L204.169 9.46162C204.175 9.5886 204.201 9.69213 204.242 9.77027H205.074C205.011 9.72144 204.978 9.6179 204.97 9.46162L204.949 9.10023ZM203.89 8.23093H203.499V7.69958H203.89C204.076 7.69958 204.168 7.78749 204.168 7.96526C204.168 8.14302 204.076 8.23093 203.89 8.23093Z" fill="white"/>
<path d="M63.0693 4V7.97364H50.9842V13.4908H61.9856V17.3002H50.9842V27.3821H46.5508V4H63.0693Z" fill="white"/>
<path d="M80.358 18.9094C80.358 21.5803 79.5699 23.7259 77.9935 25.346C76.4172 26.9661 74.3374 27.7762 71.7539 27.7762C69.1705 27.7762 67.0907 26.9661 65.5143 25.346C63.9161 23.7478 63.117 21.6022 63.117 18.9094C63.117 16.2165 63.9161 14.0709 65.5143 12.4727C67.0907 10.8526 69.1705 10.0426 71.7539 10.0426C74.3374 10.0426 76.4172 10.8417 77.9935 12.4399C79.5699 14.0381 80.358 16.1946 80.358 18.9094ZM68.5028 22.9487C69.2909 23.8901 70.3747 24.3608 71.7539 24.3608C73.1332 24.3608 74.206 23.8901 74.9723 22.9487C75.7604 21.9854 76.1545 20.6389 76.1545 18.9094C76.1545 17.1798 75.7604 15.8443 74.9723 14.9029C74.206 13.9396 73.1332 13.4579 71.7539 13.4579C70.3747 13.4579 69.2909 13.9286 68.5028 14.87C67.7365 15.8115 67.3534 17.1579 67.3534 18.9094C67.3534 20.6608 67.7365 22.0073 68.5028 22.9487Z" fill="white"/>
<path d="M92.652 19.9274V10.4366H96.7898V27.3821H92.7833V24.9191C91.4916 26.8238 89.7183 27.7762 87.4633 27.7762C85.6461 27.7762 84.2012 27.2507 83.1284 26.1998C82.0775 25.1271 81.5521 23.6164 81.5521 21.6679V10.4366H85.6899V20.9783C85.6899 23.1238 86.7517 24.1966 88.8754 24.1966C89.9263 24.1966 90.8129 23.8244 91.5354 23.08C92.2798 22.3138 92.652 21.2629 92.652 19.9274Z" fill="white"/>
<path d="M108.461 10.0426C110.3 10.0426 111.745 10.5789 112.796 11.6517C113.869 12.7026 114.405 14.2023 114.405 16.1508V27.3821H110.268V16.8404C110.268 14.6949 109.206 13.6221 107.082 13.6221C106.031 13.6221 105.134 14.0053 104.389 14.7715C103.667 15.5159 103.305 16.5558 103.305 17.8913V27.3821H99.1676V10.4366H103.174V12.8668C104.466 10.984 106.228 10.0426 108.461 10.0426Z" fill="white"/>
<path d="M128.868 12.6369V4H133.006V27.3821H129V25.0176C127.752 26.8566 125.967 27.7762 123.647 27.7762C121.304 27.7762 119.454 26.9661 118.097 25.346C116.718 23.7259 116.028 21.5803 116.028 18.9094C116.028 16.1946 116.718 14.0381 118.097 12.4399C119.432 10.8417 121.282 10.0426 123.647 10.0426C125.924 10.0426 127.664 10.9073 128.868 12.6369ZM120.264 19.0407C120.264 20.7922 120.647 22.1167 121.414 23.0144C122.18 23.912 123.242 24.3608 124.599 24.3608C125.957 24.3608 127.029 23.8901 127.817 22.9487C128.584 22.0073 128.967 20.6608 128.967 18.9094C128.967 17.1579 128.584 15.8115 127.817 14.87C127.051 13.9286 125.978 13.4579 124.599 13.4579C123.264 13.4579 122.202 13.9505 121.414 14.9357C120.647 15.9209 120.264 17.2893 120.264 19.0407Z" fill="white"/>
<path d="M150.599 27.3821H146.461C146.264 27.0318 146.111 26.3421 146.001 25.3132C144.863 26.9552 143.045 27.7762 140.55 27.7762C138.689 27.7762 137.2 27.3273 136.083 26.4297C134.989 25.5321 134.441 24.2842 134.441 22.686C134.441 19.599 136.609 17.8366 140.944 17.3987L143.505 17.1688C144.359 17.0594 144.972 16.8623 145.344 16.5777C145.716 16.2712 145.903 15.8224 145.903 15.2313C145.903 14.5088 145.662 13.9834 145.18 13.655C144.72 13.3047 143.932 13.1295 142.816 13.1295C141.611 13.1295 140.747 13.3375 140.221 13.7535C139.696 14.1476 139.389 14.8372 139.302 15.8224H135.23C135.47 11.9692 138.01 10.0426 142.848 10.0426C147.555 10.0426 149.909 11.7393 149.909 15.1328V24.1638C149.909 25.6525 150.139 26.7253 150.599 27.3821ZM141.535 24.8206C142.827 24.8206 143.877 24.4703 144.687 23.7697C145.498 23.0472 145.903 22.0182 145.903 20.6827V19.1392C145.508 19.4895 144.863 19.7194 143.965 19.8289L141.732 20.0916C140.637 20.223 139.849 20.4857 139.367 20.8798C138.908 21.2519 138.678 21.7993 138.678 22.5218C138.678 23.2442 138.919 23.8135 139.4 24.2294C139.904 24.6235 140.615 24.8206 141.535 24.8206Z" fill="white"/>
<path d="M160.399 10.4366V13.5893H157.05V22.7516C157.05 23.299 157.192 23.6821 157.477 23.901C157.783 24.12 158.287 24.2294 158.987 24.2294H160.399V27.3821C159.502 27.4697 158.779 27.5134 158.232 27.5134C156.393 27.5134 155.046 27.1741 154.193 26.4954C153.361 25.7948 152.945 24.6892 152.945 23.1786V13.5893H150.317V10.4366H152.945V5.51064H157.05V10.4366H160.399Z" fill="white"/>
<path d="M165.942 8.23636H161.87V4.36124H165.942V8.23636ZM165.975 27.3821H161.837V10.4366H165.975V27.3821Z" fill="white"/>
<path d="M184.81 18.9094C184.81 21.5803 184.022 23.7259 182.445 25.346C180.869 26.9661 178.789 27.7762 176.206 27.7762C173.622 27.7762 171.542 26.9661 169.966 25.346C168.368 23.7478 167.569 21.6022 167.569 18.9094C167.569 16.2165 168.368 14.0709 169.966 12.4727C171.542 10.8526 173.622 10.0426 176.206 10.0426C178.789 10.0426 180.869 10.8417 182.445 12.4399C184.022 14.0381 184.81 16.1946 184.81 18.9094ZM172.955 22.9487C173.743 23.8901 174.826 24.3608 176.206 24.3608C177.585 24.3608 178.658 23.8901 179.424 22.9487C180.212 21.9854 180.606 20.6389 180.606 18.9094C180.606 17.1798 180.212 15.8443 179.424 14.9029C178.658 13.9396 177.585 13.4579 176.206 13.4579C174.826 13.4579 173.743 13.9286 172.955 14.87C172.188 15.8115 171.805 17.1579 171.805 18.9094C171.805 20.6608 172.188 22.0073 172.955 22.9487Z" fill="white"/>
<path d="M195.714 10.0426C197.553 10.0426 198.998 10.5789 200.049 11.6517C201.122 12.7026 201.658 14.2023 201.658 16.1508V27.3821H197.521V16.8404C197.521 14.6949 196.459 13.6221 194.335 13.6221C193.284 13.6221 192.387 14.0053 191.642 14.7715C190.92 15.5159 190.559 16.5558 190.559 17.8913V27.3821H186.421V10.4366H190.427V12.8668C191.719 10.984 193.481 10.0426 195.714 10.0426Z" fill="white"/>
<defs>
<clipPath id="clip0_574_113513">
<rect width="31.3482" height="29.5309" fill="white" transform="translate(0 31.3482) rotate(-90)"/>
</clipPath>
</defs>
</svg>
